<?xml version="1.0" standalone="no"?>
<!DOCTYPE svg PUBLIC "-//W3C//DTD SVG 20010904//EN"
 "http://www.w3.org/TR/2001/REC-SVG-20010904/DTD/svg10.dtd">
<svg version="1.0" xmlns="http://www.w3.org/2000/svg"
 width="512.000000pt" height="512.000000pt" viewBox="0 0 512.000000 512.000000"
 preserveAspectRatio="xMidYMid meet">
<metadata>
Created by potrace 1.11, written by Peter Selinger 2001-2013
</metadata>
<g transform="translate(0.000000,512.000000) scale(0.100000,-0.100000)"
fill="#000000" stroke="none">
<path d="M450 4275 c0 -13 241 -15 2110 -15 1869 0 2110 2 2110 15 0 13 -241
15 -2110 15 -1869 0 -2110 -2 -2110 -15z"/>
<path d="M510 2595 l0 -855 110 0 110 0 0 395 0 395 340 0 340 0 0 -395 0
-395 110 0 110 0 0 855 0 855 -110 0 -110 0 0 -370 0 -370 -340 0 -340 0 0
370 0 370 -110 0 -110 0 0 -855z"/>
<path d="M2000 2595 l0 -855 110 0 110 0 2 649 3 649 336 -647 336 -646 111
-3 112 -3 0 856 0 855 -110 0 -110 0 0 -657 0 -658 -341 658 -341 657 -109 0
-109 0 0 -855z"/>
<path d="M3490 2595 l0 -855 110 0 110 0 2 645 3 645 335 -645 335 -645 108 0
107 0 0 855 0 855 -105 0 -105 0 -2 -657 -3 -657 -340 657 -340 657 -107 0
-108 0 0 -855z"/>
<path d="M450 875 c0 -13 241 -15 2110 -15 1869 0 2110 2 2110 15 0 13 -241
15 -2110 15 -1869 0 -2110 -2 -2110 -15z"/>
</g>
</svg>
